<svg width="24" height="24" viewBox="0 0 24 24" fill="none" xmlns="http://www.w3.org/2000/svg">
<path d="M5.96078 2.45946L10.4314 7H6.33333L0 0.378378L0.186275 0H19V2.45946H5.96078Z" fill="#B5B5B5"/>
<path d="M5.96078 19.5405L10.4314 15H6.33333L0 21.6216L0.186275 22H19V19.5405H5.96078Z" fill="#B5B5B5"/>
<path d="M0.210938 12.6797L1.11719 12.375C1.26302 12.6354 1.47396 12.849 1.75 13.0156C2.02604 13.1771 2.33073 13.2578 2.66406 13.2578C3.00781 13.2578 3.28385 13.1745 3.49219 13.0078C3.70052 12.8411 3.80469 12.625 3.80469 12.3594C3.80469 12.0781 3.69271 11.8594 3.46875 11.7031C3.25 11.5469 2.92708 11.3958 2.5 11.25C1.89062 11.0469 1.47917 10.8854 1.26562 10.7656C0.708333 10.4479 0.429688 9.98698 0.429688 9.38281C0.429688 8.8724 0.630208 8.46094 1.03125 8.14844C1.43229 7.83594 1.95573 7.67969 2.60156 7.67969C3.13281 7.67969 3.58594 7.80469 3.96094 8.05469C4.34115 8.29948 4.61719 8.61458 4.78906 9L3.92188 9.28906C3.58854 8.80469 3.14583 8.5625 2.59375 8.5625C2.25521 8.5625 1.98698 8.63802 1.78906 8.78906C1.59115 8.9401 1.49219 9.13802 1.49219 9.38281C1.49219 9.45573 1.5 9.52604 1.51562 9.59375C1.53125 9.65625 1.5625 9.71615 1.60938 9.77344C1.65625 9.83073 1.69792 9.88021 1.73438 9.92188C1.77083 9.96354 1.83073 10.0078 1.91406 10.0547C1.9974 10.1016 2.0625 10.138 2.10938 10.1641C2.16146 10.1901 2.24479 10.224 2.35938 10.2656C2.47396 10.3073 2.55469 10.3359 2.60156 10.3516C2.65365 10.3672 2.7474 10.3984 2.88281 10.4453C3.01823 10.487 3.10938 10.5156 3.15625 10.5312C3.39583 10.6094 3.60677 10.6927 3.78906 10.7812C3.97135 10.8698 4.14844 10.9844 4.32031 11.125C4.4974 11.2604 4.63281 11.4297 4.72656 11.6328C4.82031 11.8359 4.86719 12.0651 4.86719 12.3203C4.86719 12.8984 4.65885 13.3464 4.24219 13.6641C3.83073 13.9818 3.29688 14.1406 2.64062 14.1406C2.07292 14.1406 1.57552 14.0104 1.14844 13.75C0.721354 13.4844 0.408854 13.1276 0.210938 12.6797ZM5.70312 14V7.61719H6.6875V11.2891L8.28906 9.49219H9.53125L7.86719 11.3281L9.63281 14H8.47656L7.22656 12.0234L6.6875 12.6172V14H5.70312ZM10.1406 8.82031V7.73438H11.2031V8.82031H10.1406ZM10.1875 14V9.49219H11.1641V14H10.1875ZM12.4219 14V7.61719H13.4062V14H12.4219ZM14.6484 14V7.61719H15.6328V14H14.6484ZM16.4531 13.0625L17.1641 12.6484C17.4766 13.1068 17.8828 13.3359 18.3828 13.3359C18.6276 13.3359 18.8203 13.2891 18.9609 13.1953C19.1068 13.0964 19.1797 12.9661 19.1797 12.8047C19.1797 12.6745 19.1198 12.5599 19 12.4609C18.8854 12.362 18.763 12.2891 18.6328 12.2422C18.5026 12.1901 18.3073 12.1224 18.0469 12.0391C18 12.0234 17.9661 12.013 17.9453 12.0078C17.7578 11.9453 17.599 11.8854 17.4688 11.8281C17.3438 11.7656 17.2109 11.6849 17.0703 11.5859C16.9297 11.4818 16.8229 11.3542 16.75 11.2031C16.6771 11.0469 16.6406 10.8672 16.6406 10.6641C16.6406 10.2682 16.8073 9.95052 17.1406 9.71094C17.474 9.47135 17.888 9.35156 18.3828 9.35156C18.7526 9.35156 19.1016 9.45052 19.4297 9.64844C19.7578 9.84115 20.0026 10.0885 20.1641 10.3906L19.5078 10.7891C19.2005 10.3672 18.8281 10.1562 18.3906 10.1562C18.151 10.1562 17.9661 10.2057 17.8359 10.3047C17.7109 10.3984 17.6484 10.5234 17.6484 10.6797C17.6484 10.8099 17.7031 10.9271 17.8125 11.0312C17.9271 11.1302 18.0443 11.2031 18.1641 11.25C18.2839 11.2969 18.4531 11.3568 18.6719 11.4297C18.7292 11.4453 18.7708 11.4583 18.7969 11.4688C19.724 11.7656 20.1875 12.2135 20.1875 12.8125C20.1875 13.1823 20.0312 13.4974 19.7188 13.7578C19.4115 14.013 18.974 14.1406 18.4062 14.1406C17.9688 14.1406 17.5781 14.0443 17.2344 13.8516C16.8958 13.6589 16.6354 13.3958 16.4531 13.0625Z" fill="#B5B5B5"/>
</svg>
